# xmcd
#
# Track frame offsets:
#	150
#	11162
#	27051
#	40387
#	54373
#	68706
#	80541
#	93479
#	105572
#	119255
#	133982
#	147635
#
# Disc length: 2084 seconds
# Revision: 1
# Processed by: cddbd v1.5.2PL0 Copyright (c) Steve Scherf et al.
# Submitted via: dBpowerAMP V12.0
#
DISCID=a608220c
DTITLE=Crowe Brothers - Brothers-N-Harmony
DYEAR=2008
DGENRE=Country
TTITLE0=Cindy Mae
TTITLE1=Holdin' on When You've Let Go
TTITLE2=Are You Teasin' Me?
TTITLE3=Million for a Broken Heart
TTITLE4=Better Luck Next Time
TTITLE5=I Know I'm Saved
TTITLE6=Which One Is to Blame
TTITLE7=Go Away with Me
TTITLE8=Why Not Confess
TTITLE9=God Must Be a Cowboy
TTITLE10=Take Me by the Hand
TTITLE11=Country Boy Rock and Roll
EXTD=
EXTT0=
EXTT1=
EXTT2=
EXTT3=
EXTT4=
EXTT5=
EXTT6=
EXTT7=
EXTT8=
EXTT9=
EXTT10=
EXTT11=
PLAYORDER=
